<?xml version="1.0" standalone="no"?>
<!DOCTYPE svg PUBLIC "-//W3C//DTD SVG 20010904//EN"
 "http://www.w3.org/TR/2001/REC-SVG-20010904/DTD/svg10.dtd">
<svg version="1.0" xmlns="http://www.w3.org/2000/svg"
 width="640.000000pt" height="640.000000pt" viewBox="0 0 640.000000 640.000000"
 preserveAspectRatio="xMidYMid meet">
<metadata>
Created by potrace 1.11, written by Peter Selinger 2001-2013
</metadata>
<g transform="translate(0.000000,640.000000) scale(0.100000,-0.100000)"
fill="#000000" stroke="none">
<path d="M3125 5725 c-38 -18 -108 -51 -155 -73 -47 -22 -134 -63 -195 -92
-189 -89 -397 -186 -635 -298 -30 -14 -119 -56 -197 -93 -79 -37 -143 -65
-143 -61 0 4 -4 3 -8 -3 -8 -11 -51 -33 -177 -90 -194 -89 -268 -128 -295
-156 -45 -48 -50 -135 -11 -189 10 -14 78 -62 152 -106 126 -77 134 -84 140
-118 3 -20 3 -36 0 -36 -3 0 -5 -33 -3 -72 3 -86 3 -65 1 -211 -1 -65 1 -120
3 -123 3 -2 2 -24 -2 -49 -4 -24 -4 -49 0 -55 19 -31 -7 -69 -60 -85 -3 -1
-18 -7 -35 -15 -98 -43 -115 -50 -120 -50 -4 0 -25 -9 -48 -19 -23 -10 -105
-45 -182 -76 -77 -32 -163 -68 -192 -81 -28 -13 -56 -24 -60 -24 -5 0 -34 -12
-64 -26 -30 -15 -60 -27 -66 -27 -7 0 -13 -4 -13 -9 0 -4 -6 -8 -14 -8 -13 0
-66 -21 -156 -62 -25 -12 -51 -21 -57 -21 -7 0 -13 -4 -13 -9 0 -4 -7 -8 -15
-8 -8 0 -41 -12 -73 -27 -88 -40 -126 -113 -103 -199 21 -78 21 -78 459 -220
l174 -56 -4 -39 c-2 -21 -1 -39 2 -39 4 0 4 -112 0 -130 -1 -3 -1 -52 0 -110
1 -58 1 -112 1 -120 0 -8 -2 -57 -3 -109 l-3 -93 -135 -75 c-74 -41 -166 -91
-205 -111 -38 -20 -72 -39 -75 -42 -3 -3 -21 -13 -40 -24 -19 -10 -62 -33 -95
-51 -33 -18 -87 -47 -120 -65 -218 -118 -245 -136 -268 -180 -26 -50 -17 -122
21 -169 22 -28 48 -43 108 -64 43 -16 102 -37 129 -47 28 -10 120 -43 205 -73
l155 -55 6 -36 c3 -20 3 -36 0 -36 -3 0 -5 -33 -3 -72 2 -40 3 -80 3 -88 -1
-104 -1 -141 0 -147 1 -4 0 -12 -1 -18 -3 -14 0 -87 5 -111 2 -10 4 -25 4 -33
1 -7 19 -30 40 -51 50 -49 74 -52 307 -48 l181 3 37 29 c39 30 71 88 62 112
-3 8 -1 14 5 14 6 0 8 4 5 8 -6 10 -8 86 -4 170 2 34 -1 62 -5 62 -5 0 -5 4
-2 10 3 5 6 59 6 120 0 107 0 110 22 111 12 1 27 0 32 -1 12 -2 186 -1 278 2
37 2 67 1 67 -2 0 -4 107 -4 120 1 3 1 8 1 13 0 15 -2 213 -1 280 1 37 2 67 1
67 -2 0 -4 107 -4 120 1 3 1 8 1 13 0 15 -2 213 -1 280 1 37 2 67 1 67 -2 0
-4 35 -4 135 0 11 1 39 1 62 -1 l43 -1 -1 -74 c-1 -40 2 -77 4 -81 3 -5 2 -15
-2 -21 -4 -7 -5 -33 -1 -57 4 -25 5 -47 2 -49 -6 -7 -8 -116 -2 -116 3 0 5
-31 6 -68 1 -75 16 -108 68 -145 30 -21 40 -22 247 -22 l216 0 36 28 c20 15
41 36 47 47 10 18 24 85 22 105 -1 17 -3 200 -2 205 4 21 4 150 0 150 -3 0 -3
21 0 47 5 46 6 48 43 54 20 3 37 3 37 0 0 -5 106 -5 120 0 3 1 8 1 13 0 15 -2
213 -1 280 1 37 2 67 1 67 -2 0 -4 107 -4 120 1 3 1 8 1 13 0 15 -2 213 -1
280 1 37 2 67 1 67 -2 0 -4 107 -4 120 1 3 1 8 1 13 0 4 -1 56 -1 115 -1 167
0 205 -1 214 -6 4 -3 8 -2 8 3 0 4 20 7 44 5 l45 -4 0 -71 c1 -40 2 -79 2 -87
0 -8 0 -33 0 -55 -1 -22 -1 -47 0 -55 0 -8 0 -55 -1 -105 -2 -150 11 -193 74
-238 29 -21 43 -22 232 -25 228 -4 253 1 300 63 23 31 29 48 30 102 2 36 4 66
6 68 2 2 1 38 -2 80 -3 42 -3 78 -2 80 7 6 7 145 1 145 -3 0 -4 15 -2 32 7 54
13 78 21 76 4 -1 18 3 32 9 14 5 86 31 160 57 74 26 151 54 170 61 19 8 70 26
113 41 115 40 158 99 142 195 -9 52 -59 103 -141 144 -32 16 -84 43 -114 61
-63 36 -136 76 -345 189 -38 21 -84 46 -102 56 -18 10 -63 35 -100 55 -100 54
-137 77 -145 88 -4 6 -8 58 -8 116 0 58 -1 112 -1 120 0 17 0 164 0 195 0 11
2 62 3 113 l3 94 95 29 c52 17 102 32 110 35 8 3 17 5 20 6 3 0 21 6 40 13 19
8 94 32 165 55 140 45 176 69 196 127 15 47 3 117 -26 152 -22 25 -73 57 -100
61 -5 1 -21 8 -35 16 -14 7 -65 30 -115 49 -49 20 -106 44 -125 52 -66 29 -95
41 -182 77 -49 20 -127 52 -175 72 -49 20 -101 42 -118 49 -16 7 -70 30 -120
50 -90 37 -134 56 -190 81 -17 7 -42 17 -57 23 -26 10 -27 13 -27 86 0 41 -2
79 -5 83 -2 4 -1 14 3 20 4 7 5 33 1 57 -4 25 -5 47 -2 49 6 7 8 116 2 116 -4
0 -4 115 0 130 1 3 1 28 0 56 l-1 51 88 54 c48 30 105 63 126 74 20 11 37 23
37 27 0 5 6 8 13 8 35 0 66 108 47 164 -22 66 -57 89 -330 214 -30 13 -120 55
-199 93 -79 38 -145 69 -146 69 -2 0 -59 26 -126 59 -256 121 -279 131 -289
131 -5 0 -10 4 -10 9 0 5 -10 11 -23 15 -13 3 -86 35 -163 72 -76 36 -170 81
-209 99 -38 18 -113 53 -165 78 -113 53 -251 117 -253 117 -1 0 -33 -16 -72
-35z m-748 -1248 c32 1 69 3 83 3 14 1 66 1 115 0 50 -1 92 -1 95 0 17 4 130
4 130 0 0 -4 104 -4 120 0 3 1 50 1 105 0 55 -1 107 -1 115 -1 8 0 42 0 75 0
73 -1 75 -1 100 1 11 1 38 1 60 1 22 0 47 0 55 0 8 0 38 0 65 0 53 -1 67 -1
130 0 50 0 42 0 180 -1 63 -1 119 1 125 5 5 3 10 3 10 -2 0 -4 33 -7 72 -5 90
4 128 3 138 -3 9 -6 18 -85 10 -85 -3 0 -5 -22 -5 -50 0 -27 2 -50 5 -50 3 0
4 -46 3 -102 -1 -57 -3 -103 -3 -103 -1 0 -2 -33 -3 -73 -1 -39 0 -72 3 -72 3
0 4 -21 2 -46 -4 -49 -28 -68 -66 -54 -11 4 -36 4 -57 0 -21 -4 -42 -4 -48 0
-6 3 -36 3 -66 0 -30 -3 -60 -3 -66 0 -5 4 -30 4 -55 0 -24 -4 -46 -4 -49 -1
-2 4 -31 4 -64 1 -33 -3 -68 -3 -77 0 -10 4 -35 4 -55 0 -21 -4 -42 -4 -48 0
-6 3 -36 3 -66 0 -30 -3 -60 -3 -66 0 -5 4 -30 4 -55 0 -24 -4 -46 -4 -49 -1
-2 4 -31 4 -64 1 -33 -3 -68 -3 -77 0 -10 4 -35 4 -55 0 -21 -4 -42 -4 -48 0
-6 3 -36 3 -66 0 -30 -3 -60 -3 -66 0 -5 4 -30 4 -55 0 -24 -4 -47 -3 -50 2
-3 4 -9 6 -13 4 -8 -5 -33 -6 -214 -6 -49 0 -93 -2 -98 -5 -5 -4 -9 -3 -9 2 0
4 -33 7 -72 5 -90 -4 -128 -3 -138 3 -9 6 -18 85 -10 85 3 0 5 23 5 50 0 28
-2 50 -5 50 -3 0 -4 46 -3 102 1 57 3 103 3 103 1 0 2 33 3 73 1 39 0 72 -3
72 -3 0 -3 21 0 48 5 45 7 47 40 52 19 3 36 3 37 0 2 -3 29 -4 60 -3z m-581
-1597 c25 4 46 4 49 1 2 -4 31 -4 64 -1 33 3 68 3 77 0 10 -4 35 -4 55 0 21 4
43 4 49 0 6 -4 26 -4 43 -1 18 4 48 4 68 1 20 -4 59 -4 88 0 28 3 51 4 51 1 0
-6 139 -6 145 1 2 1 45 1 95 -2 50 -3 93 -3 95 -1 6 5 125 7 125 1 0 -6 109
-4 116 2 2 3 24 2 49 -2 24 -4 50 -3 57 1 6 4 15 6 19 3 7 -4 253 -7 269 -4
19 4 130 4 130 0 0 -6 109 -4 116 2 2 3 24 2 49 -2 24 -4 49 -4 54 0 6 3 32 3
58 0 27 -3 82 -3 124 0 42 3 89 3 105 0 16 -4 43 -3 60 1 18 3 37 3 44 -1 6
-4 29 -4 51 0 22 4 41 4 44 0 2 -4 25 -4 50 0 25 4 45 4 45 1 0 -3 28 -5 62
-3 89 4 158 3 166 -2 4 -2 31 0 60 3 28 4 52 5 52 2 0 -3 33 -5 72 -3 100 4
131 3 141 -7 4 -4 8 -43 7 -85 -1 -42 -1 -84 -1 -93 0 -15 0 -104 0 -138 0 -5
0 -32 0 -60 1 -27 0 -78 -1 -113 -2 -34 0 -62 3 -62 3 0 3 -17 0 -37 -6 -37
-8 -38 -54 -43 -26 -3 -47 -3 -47 0 0 4 -130 4 -150 0 -15 -3 -193 0 -197 3
-2 3 -19 1 -37 -3 -19 -4 -39 -4 -46 0 -6 4 -29 4 -51 0 -22 -4 -41 -4 -44 0
-2 4 -25 4 -50 0 -25 -4 -45 -4 -45 -1 0 5 -55 5 -140 1 -14 -1 -65 -1 -115 0
-49 1 -92 1 -95 0 -17 -4 -130 -4 -130 0 0 6 -109 4 -116 -2 -2 -3 -24 -2 -49
2 -24 4 -50 3 -57 -1 -6 -4 -15 -6 -19 -3 -7 4 -253 7 -269 4 -19 -4 -130 -4
-130 0 0 6 -109 4 -116 -2 -2 -3 -24 -2 -49 2 -24 4 -49 4 -54 0 -6 -3 -32 -3
-58 0 -27 3 -82 3 -124 0 -42 -3 -89 -3 -105 0 -16 4 -43 3 -60 -1 -18 -3 -37
-3 -44 1 -6 4 -29 4 -51 0 -22 -4 -41 -4 -44 0 -2 4 -25 4 -50 0 -25 -4 -45
-4 -45 -1 0 3 -28 5 -62 3 -89 -4 -158 -3 -166 2 -4 2 -31 0 -59 -3 -29 -4
-53 -5 -53 -2 0 3 -33 5 -72 3 -100 -4 -131 -3 -141 7 -6 6 -9 80 -5 174 0 6
-1 26 -2 42 -2 26 -2 204 0 260 0 23 -1 95 -2 104 -5 46 1 51 57 50 31 -1 58
1 62 4 3 4 12 3 20 -2 8 -4 35 -5 59 -1z"/>
</g>
</svg>
